# Blender v2.81 (sub 16) OBJ File: 'Pine tree.blend'
# www.blender.org
mtllib Pine tree.mtl
o Cylinder_Cylinder.002
v 0.053249 0.357183 -1.053961
v 0.002592 4.072223 -0.803067
v 0.574594 0.307230 -1.219818
v 0.310576 4.070271 -0.748338
v 1.155681 0.301569 -0.690286
v 0.578783 4.070018 -0.563572
v 1.245144 0.374071 -0.285989
v 0.747378 4.072522 -0.302473
v 1.118804 0.379862 0.004331
v 0.801142 4.072631 -0.000675
v 1.154441 0.329257 0.512788
v 0.745813 4.070965 0.310146
v 0.715396 0.301136 0.771439
v 0.564346 4.070196 0.565973
v 0.376280 0.297500 1.112732
v 0.305816 4.070031 0.744253
v -0.076451 0.332953 1.099288
v -0.002365 4.071169 0.800707
v -0.475210 0.356161 1.210811
v -0.308235 4.072070 0.746753
v -0.831332 0.297568 1.015002
v -0.568725 4.069962 0.574058
v -1.019320 0.293400 0.549161
v -0.739677 4.069962 0.310230
v -1.371161 0.315575 0.066740
v -0.810716 4.070736 0.002105
v -1.160536 0.319463 -0.454052
v -0.745029 4.070614 -0.308492
v -0.732241 0.358254 -0.696690
v -0.564028 4.072223 -0.564029
v -0.641671 0.299239 -0.981688
v -0.314952 4.069760 -0.740114
v 0.330347 0.894193 -0.753289
v 0.653920 0.891730 -0.476011
v 0.752354 0.920033 -0.225582
v 0.725387 0.921897 -0.001898
v 0.723775 0.902497 0.313416
v 0.485408 0.892401 0.505939
v 0.261803 0.890812 0.706975
v -0.028643 0.904276 0.718808
v -0.296075 0.913767 0.741394
v -0.532295 0.890527 0.599587
v -0.664634 0.889527 0.322506
v -0.827630 0.898220 0.025180
v -0.721824 0.898621 -0.292118
v -0.488066 0.914936 -0.479535
v -0.365042 0.890050 -0.660337
v 0.025409 0.914679 -0.734824
v nan nan nan
v nan nan nan
v nan nan nan
v nan nan nan
v nan nan nan
v nan nan nan
v nan nan nan
v nan nan nan
v nan nan nan
vt 1.000000 0.563834
vt 1.000000 1.000000
vt 0.937500 1.000000
vt 0.937500 0.563834
vt 0.875000 1.000000
vt 0.875000 0.563834
vt 0.812500 1.000000
vt 0.812500 0.563834
vt 0.750000 1.000000
vt 0.750000 0.563834
vt 0.687500 1.000000
vt 0.687500 0.563834
vt 0.625000 1.000000
vt 0.625000 0.563834
vt 0.562500 1.000000
vt 0.562500 0.563834
vt 0.500000 1.000000
vt 0.500000 0.563834
vt 0.437500 1.000000
vt 0.437500 0.563834
vt 0.375000 1.000000
vt 0.375000 0.563834
vt 0.312500 1.000000
vt 0.312500 0.563834
vt 0.250000 1.000000
vt 0.250000 0.563834
vt 0.187500 1.000000
vt 0.187500 0.563834
vt 0.341844 0.471731
vt 0.250000 0.490000
vt 0.158156 0.471731
vt 0.080294 0.419706
vt 0.028269 0.341844
vt 0.010000 0.250000
vt 0.028269 0.158156
vt 0.080294 0.080294
vt 0.158156 0.028269
vt 0.250000 0.010000
vt 0.341844 0.028269
vt 0.419706 0.080294
vt 0.471731 0.158156
vt 0.490000 0.250000
vt 0.471731 0.341844
vt 0.419706 0.419706
vt 0.125000 1.000000
vt 0.125000 0.563834
vt 0.062500 1.000000
vt 0.062500 0.563834
vt 0.750000 0.490000
vt 0.841844 0.471731
vt 0.919706 0.419706
vt 0.971731 0.341844
vt 0.990000 0.250000
vt 0.971731 0.158156
vt 0.919706 0.080294
vt 0.841844 0.028269
vt 0.750000 0.010000
vt 0.658156 0.028269
vt 0.580294 0.080294
vt 0.528269 0.158156
vt 0.510000 0.250000
vt 0.528269 0.341844
vt 0.580294 0.419706
vt 0.658156 0.471731
vt 1.000000 0.500000
vt 0.937500 0.500000
vt 0.875000 0.500000
vt 0.812500 0.500000
vt 0.750000 0.500000
vt 0.687500 0.500000
vt 0.625000 0.500000
vt 0.562500 0.500000
vt 0.500000 0.500000
vt 0.437500 0.500000
vt 0.375000 0.500000
vt 0.312500 0.500000
vt 0.250000 0.500000
vt 0.187500 0.500000
vt 0.125000 0.500000
vt 0.062500 0.500000
vt 0.000000 0.563834
vt 0.000000 0.500000
vt 0.000000 1.000000
vn 0.0587 -0.0096 -0.9982
vn 0.6154 -0.0011 -0.7882
vn 0.8865 -0.0008 -0.4627
vn 0.9986 -0.0118 -0.0509
vn 0.9958 -0.0154 0.0900
vn 0.7300 -0.0177 0.6832
vn 0.6182 -0.0240 0.7857
vn 0.1128 -0.0199 0.9934
vn -0.0549 -0.0137 0.9984
vn -0.5349 -0.0014 0.8449
vn -0.8722 -0.0124 0.4891
vn -0.9328 -0.0065 0.3605
vn -0.9647 -0.0026 -0.2635
vn -0.0004 1.0000 0.0002
vn -0.7293 -0.0223 -0.6838
vn -0.6929 -0.0215 -0.7207
vn 0.0083 -1.0000 -0.0036
vn -0.1397 0.5376 -0.8315
vn 0.5094 0.6494 -0.5646
vn 0.6812 0.6685 -0.2984
vn 0.7620 0.6098 0.2182
vn 0.8026 0.5963 0.0175
vn 0.4459 0.5384 0.7151
vn 0.5898 0.5211 0.6170
vn 0.0351 0.5606 0.8274
vn 0.1893 0.5660 0.8024
vn -0.4404 0.6551 0.6139
vn -0.7476 0.5829 0.3183
vn -0.6547 0.6027 0.4562
vn -0.7215 0.6379 -0.2692
vn -0.4932 0.5274 -0.6918
vn -0.7289 0.5327 -0.4302
vn -0.1533 0.5065 -0.8485
vn -0.1897 -0.0221 -0.9816
usemtl Material.009
s off
f 48/1/1 2/2/1 4/3/1 33/4/1
f 33/4/2 4/3/2 6/5/2 34/6/2
f 34/6/3 6/5/3 8/7/3 35/8/3
f 35/8/4 8/7/4 10/9/4 36/10/4
f 36/10/5 10/9/5 12/11/5 37/12/5
f 37/12/6 12/11/6 14/13/6 38/14/6
f 38/14/7 14/13/7 16/15/7 39/16/7
f 39/16/8 16/15/8 18/17/8 40/18/8
f 40/18/9 18/17/9 20/19/9 41/20/9
f 41/20/10 20/19/10 22/21/10 42/22/10
f 42/22/11 22/21/11 24/23/11 43/24/11
f 43/24/12 24/23/12 26/25/12 44/26/12
f 44/26/13 26/25/13 28/27/13 45/28/13
f 4/29/14 2/30/14 32/31/14 30/32/14 28/33/14 26/34/14 24/35/14 22/36/14 20/37/14 18/38/14 16/39/14 14/40/14 12/41/14 10/42/14 8/43/14 6/44/14
f 45/28/15 28/27/15 30/45/15 46/46/15
f 46/46/16 30/45/16 32/47/16 47/48/16
f 1/49/17 3/50/17 5/51/17 7/52/17 9/53/17 11/54/17 13/55/17 15/56/17 17/57/17 19/58/17 21/59/17 23/60/17 25/61/17 27/62/17 29/63/17 31/64/17
f 1/65/18 48/1/18 33/4/18 3/66/18
f 3/66/19 33/4/19 34/6/19 5/67/19
f 5/67/20 34/6/20 35/8/20 7/68/20
f 7/68/21 35/8/21 36/10/21 9/69/21
f 9/69/22 36/10/22 37/12/22 11/70/22
f 11/70/23 37/12/23 38/14/23 13/71/23
f 13/71/24 38/14/24 39/16/24 15/72/24
f 15/72/25 39/16/25 40/18/25 17/73/25
f 17/73/26 40/18/26 41/20/26 19/74/26
f 19/74/27 41/20/27 42/22/27 21/75/27
f 21/75/28 42/22/28 43/24/28 23/76/28
f 23/76/29 43/24/29 44/26/29 25/77/29
f 25/77/30 44/26/30 45/28/30 27/78/30
f 27/78/31 45/28/31 46/46/31 29/79/31
f 29/79/32 46/46/32 47/48/32 31/80/32
f 31/80/33 47/48/33 48/81/33 1/82/33
f 47/48/34 32/47/34 2/83/34 48/81/34
o Cone_Cone.001
v 0.001195 2.254359 -2.028505
v 0.765367 2.000000 -1.847759
v 1.437441 2.185318 -1.349996
v 1.857859 1.921011 -0.765203
v 1.989746 2.351130 -0.037723
v 1.882905 1.955819 0.738308
v 1.405966 2.287177 1.441569
v 0.764976 1.977889 1.846751
v -0.077081 2.309549 2.046135
v -0.765366 2.000000 1.847759
v -1.461702 2.513890 1.320643
v 0.000000 6.000000 0.000000
v -1.819904 1.972844 0.877474
v -1.950064 2.390719 -0.004789
v -1.781630 2.167240 -0.807428
v -1.359383 2.363462 -1.399681
v -0.832528 1.966958 -1.798370
vt 0.250000 0.490000
vt 0.250000 0.250000
vt 0.341844 0.471731
vt 0.419706 0.419706
vt 0.471731 0.341844
vt 0.490000 0.250000
vt 0.471731 0.158156
vt 0.419706 0.080294
vt 0.341844 0.028269
vt 0.250000 0.010000
vt 0.158156 0.028269
vt 0.080294 0.080294
vt 0.028269 0.158156
vt 0.010000 0.250000
vt 0.028269 0.341844
vt 0.080294 0.419706
vt 0.158156 0.471731
vn 0.3441 0.4472 -0.8256
vn 0.4510 0.4440 -0.7743
vn 0.8112 0.4414 -0.3836
vn 0.8007 0.4408 -0.4058
vn 0.8266 0.4472 0.3416
vn 0.8239 0.4472 0.3481
vn 0.3152 0.4449 0.8383
vn 0.3685 0.4449 0.8163
vn -0.4271 0.4453 0.7870
vn -0.3064 0.4469 0.8405
vn -0.8814 0.4372 0.1786
vn -0.8293 0.4476 0.3344
vn -0.8385 0.4534 -0.3022
vn -0.7897 0.4540 -0.4126
vn -0.3076 0.4398 -0.8438
vn -0.3769 0.4410 -0.8145
usemtl Material.006
s off
f 58/84/35 69/85/35 59/86/35
f 59/86/36 69/85/36 60/87/36
f 60/87/37 69/85/37 61/88/37
f 61/88/38 69/85/38 62/89/38
f 62/89/39 69/85/39 63/90/39
f 63/90/40 69/85/40 64/91/40
f 64/91/41 69/85/41 65/92/41
f 65/92/42 69/85/42 66/93/42
f 66/93/43 69/85/43 67/94/43
f 67/94/44 69/85/44 68/95/44
f 68/95/45 69/85/45 70/96/45
f 70/96/46 69/85/46 71/97/46
f 71/97/47 69/85/47 72/98/47
f 72/98/48 69/85/48 73/99/48
f 73/99/49 69/85/49 74/100/49
f 74/100/50 69/85/50 58/84/50
o Cone.001_Cone.002
v -1.767569 2.881789 -0.549382
v -1.466632 3.159319 -1.182612
v -0.920466 2.852777 -1.618767
v -0.187362 3.070953 -1.864366
v 0.362893 2.853141 -1.784858
v 1.169154 3.075588 -1.487132
v 1.601926 2.868954 -0.933269
v 1.791822 3.016773 -0.354577
v 1.821273 2.831510 0.526442
v 1.484468 3.055552 1.167815
v 0.932021 2.893264 1.614307
v 0.000000 6.621347 0.000000
v 0.256904 3.174828 1.877054
v -0.554685 2.869130 1.791576
v -0.984748 3.155648 1.566564
v -1.621749 2.887250 1.058341
v -1.817980 3.002279 0.187776
vt 0.250000 0.490000
vt 0.250000 0.250000
vt 0.341844 0.471731
vt 0.419706 0.419706
vt 0.471731 0.341844
vt 0.490000 0.250000
vt 0.471731 0.158156
vt 0.419706 0.080294
vt 0.341844 0.028269
vt 0.250000 0.010000
vt 0.158156 0.028269
vt 0.080294 0.080294
vt 0.028269 0.158156
vt 0.010000 0.250000
vt 0.028269 0.341844
vt 0.080294 0.419706
vt 0.158156 0.471731
vn -0.8693 0.4431 -0.2190
vn -0.3948 0.4423 -0.8053
vn -0.4005 0.4425 -0.8024
vn 0.2942 0.4321 -0.8525
vn 0.2038 0.4350 -0.8770
vn 0.7791 0.4429 -0.4435
vn 0.8130 0.4415 -0.3796
vn 0.8962 0.4393 0.0624
vn 0.8467 0.4470 0.2885
vn 0.4792 0.4469 0.7554
vn 0.4801 0.4469 0.7548
vn -0.2586 0.4471 0.8563
vn -0.1644 0.4447 0.8805
vn -0.6645 0.4563 0.5918
vn -0.8593 0.4448 0.2525
vn -0.8884 0.4394 -0.1326
usemtl Material.006
s off
f 75/101/51 86/102/51 76/103/51
f 76/103/52 86/102/52 77/104/52
f 77/104/53 86/102/53 78/105/53
f 78/105/54 86/102/54 79/106/54
f 79/106/55 86/102/55 80/107/55
f 80/107/56 86/102/56 81/108/56
f 81/108/57 86/102/57 82/109/57
f 82/109/58 86/102/58 83/110/58
f 83/110/59 86/102/59 84/111/59
f 84/111/60 86/102/60 85/112/60
f 85/112/61 86/102/61 87/113/61
f 87/113/62 86/102/62 88/114/62
f 88/114/63 86/102/63 89/115/63
f 89/115/64 86/102/64 90/116/64
f 90/116/65 86/102/65 91/117/65
f 91/117/66 86/102/66 75/101/66
o Cone.002_Cone.003
v -1.420558 3.824306 -0.715413
v -0.977872 3.587167 -1.382763
v -0.423155 3.788558 -1.577931
v 0.214209 3.655446 -1.627079
v 0.743733 3.828371 -1.404404
v 1.301987 3.655446 -0.999050
v 1.449220 3.995147 -0.468902
v 1.627079 3.655446 0.214209
v 1.359160 3.907979 0.750122
v 1.063333 3.607345 1.285604
v 0.402295 3.817948 1.538458
v 0.000000 6.937684 0.000000
v -0.214209 3.655446 1.627079
v -0.754466 3.764898 1.408946
v -1.311808 3.601496 1.017211
v -1.579404 3.809159 0.282411
v -1.618983 3.589370 -0.302803
vt 0.250000 0.490000
vt 0.250000 0.250000
vt 0.341844 0.471731
vt 0.419706 0.419706
vt 0.471731 0.341844
vt 0.490000 0.250000
vt 0.471731 0.158156
vt 0.419706 0.080294
vt 0.341844 0.028269
vt 0.250000 0.010000
vt 0.158156 0.028269
vt 0.080294 0.080294
vt 0.028269 0.158156
vt 0.010000 0.250000
vt 0.028269 0.341844
vt 0.080294 0.419706
vt 0.158156 0.471731
vn -0.6671 0.4421 -0.5996
vn -0.4372 0.4492 -0.7792
vn 0.0240 0.4453 -0.8951
vn 0.2199 0.4448 -0.8682
vn 0.6126 0.4424 -0.6550
vn 0.7466 0.4463 -0.4933
vn 0.8962 0.4434 -0.0128
vn 0.8673 0.4446 0.2241
vn 0.6544 0.4449 0.6113
vn 0.4399 0.4422 0.7817
vn 0.0119 0.4435 0.8962
vn -0.2572 0.4426 0.8590
vn -0.5992 0.4396 0.6691
vn -0.7968 0.4397 0.4144
vn -0.8915 0.4406 -0.1052
vn -0.8806 0.4414 -0.1722
usemtl Material.006
s off
f 92/118/67 103/119/67 93/120/67
f 93/120/68 103/119/68 94/121/68
f 94/121/69 103/119/69 95/122/69
f 95/122/70 103/119/70 96/123/70
f 96/123/71 103/119/71 97/124/71
f 97/124/72 103/119/72 98/125/72
f 98/125/73 103/119/73 99/126/73
f 99/126/74 103/119/74 100/127/74
f 100/127/75 103/119/75 101/128/75
f 101/128/76 103/119/76 102/129/76
f 102/129/77 103/119/77 104/130/77
f 104/130/78 103/119/78 105/131/78
f 105/131/79 103/119/79 106/132/79
f 106/132/80 103/119/80 107/133/80
f 107/133/81 103/119/81 108/134/81
f 108/134/82 103/119/82 92/118/82
o Cone.003_Cone.004
v -0.096868 4.302522 -1.441742
v 0.427160 4.617385 -1.385890
v 0.986586 4.391407 -1.129347
v 1.233512 4.677864 -0.577255
v 1.523131 4.402225 -0.015906
v 1.249635 4.605972 0.594586
v 1.061217 4.271036 1.052189
v 0.521874 4.498892 1.310805
v 0.000000 4.397470 1.455613
v -0.600163 4.529743 1.303675
v -1.124354 4.285642 0.952076
v 0.000000 7.308696 0.000000
v -1.362002 4.551146 0.404681
v -1.511876 4.316588 -0.103227
v -1.290830 4.510599 -0.600457
v -1.005336 4.327853 -1.117697
v -0.443240 4.634841 -1.337777
vt 0.250000 0.490000
vt 0.250000 0.250000
vt 0.341844 0.471731
vt 0.419706 0.419706
vt 0.471731 0.341844
vt 0.490000 0.250000
vt 0.471731 0.158156
vt 0.419706 0.080294
vt 0.341844 0.028269
vt 0.250000 0.010000
vt 0.158156 0.028269
vt 0.080294 0.080294
vt 0.028269 0.158156
vt 0.010000 0.250000
vt 0.028269 0.341844
vt 0.080294 0.419706
vt 0.158156 0.471731
vn -0.1643 0.4309 -0.8873
vn 0.5165 0.4554 -0.7252
vn 0.7042 0.4506 -0.5487
vn 0.8630 0.4535 -0.2226
vn 0.8613 0.4501 0.2357
vn 0.6691 0.4410 0.5982
vn 0.5323 0.4371 0.7250
vn 0.1592 0.4415 0.8830
vn -0.1268 0.4436 0.8872
vn -0.6325 0.4367 0.6397
vn -0.7281 0.4371 0.5281
vn -0.8919 0.4487 0.0560
vn -0.8692 0.4465 -0.2122
vn -0.7085 0.4445 -0.5481
vn -0.5275 0.4485 -0.7216
vn 0.1388 0.4246 -0.8947
usemtl Material.006
s off
f 109/135/83 120/136/83 110/137/83
f 110/137/84 120/136/84 111/138/84
f 111/138/85 120/136/85 112/139/85
f 112/139/86 120/136/86 113/140/86
f 113/140/87 120/136/87 114/141/87
f 114/141/88 120/136/88 115/142/88
f 115/142/89 120/136/89 116/143/89
f 116/143/90 120/136/90 117/144/90
f 117/144/91 120/136/91 118/145/91
f 118/145/92 120/136/92 119/146/92
f 119/146/93 120/136/93 121/147/93
f 121/147/94 120/136/94 122/148/94
f 122/148/95 120/136/95 123/149/95
f 123/149/96 120/136/96 124/150/96
f 124/150/97 120/136/97 125/151/97
f 125/151/98 120/136/98 109/135/98
o Cone.004_Cone.005
v -0.583581 5.333405 -1.057319
v -0.162706 5.190204 -1.235878
v 0.232530 5.416975 -1.099106
v 0.723510 5.114614 -1.059280
v 0.980193 5.403939 -0.604393
v 1.235878 5.190204 -0.162706
v 1.094727 5.340513 0.357785
v 0.996771 5.092945 0.814363
v 0.540033 5.336974 1.055379
v 0.218840 5.155670 1.221136
v -0.250577 5.436888 1.171618
v 0.000000 7.683288 0.000000
v -0.758846 5.190204 0.988948
v -1.014937 5.264424 0.655032
v -1.223890 5.071694 0.235006
v -1.173779 5.343167 -0.204121
v -1.034401 5.107276 -0.716542
vt 0.250000 0.490000
vt 0.250000 0.250000
vt 0.341844 0.471731
vt 0.419706 0.419706
vt 0.471731 0.341844
vt 0.490000 0.250000
vt 0.471731 0.158156
vt 0.419706 0.080294
vt 0.341844 0.028269
vt 0.250000 0.010000
vt 0.158156 0.028269
vt 0.080294 0.080294
vt 0.028269 0.158156
vt 0.010000 0.250000
vt 0.028269 0.341844
vt 0.080294 0.419706
vt 0.158156 0.471731
vn -0.2172 0.4449 -0.8688
vn 0.0574 0.4404 -0.8960
vn 0.3376 0.4386 -0.8329
vn 0.6322 0.4408 -0.6371
vn 0.8527 0.4410 -0.2802
vn 0.8929 0.4350 0.1165
vn 0.8013 0.4369 0.4088
vn 0.5916 0.4400 0.6756
vn 0.2029 0.4401 0.8747
vn 0.1710 0.4406 0.8813
vn -0.4865 0.4461 0.7512
vn -0.6618 0.4417 0.6057
vn -0.8715 0.4297 0.2364
vn -0.8873 0.4307 0.1650
vn -0.7971 0.4362 -0.4176
vn -0.6715 0.4363 -0.5989
usemtl Material.006
s off
f 126/152/99 137/153/99 127/154/99
f 127/154/100 137/153/100 128/155/100
f 128/155/101 137/153/101 129/156/101
f 129/156/102 137/153/102 130/157/102
f 130/157/103 137/153/103 131/158/103
f 131/158/104 137/153/104 132/159/104
f 132/159/105 137/153/105 133/160/105
f 133/160/106 137/153/106 134/161/106
f 134/161/107 137/153/107 135/162/107
f 135/162/108 137/153/108 136/163/108
f 136/163/109 137/153/109 138/164/109
f 138/164/110 137/153/110 139/165/110
f 139/165/111 137/153/111 140/166/111
f 140/166/112 137/153/112 141/167/112
f 141/167/113 137/153/113 142/168/113
f 142/168/114 137/153/114 126/152/114
